# xmcd
# Copyright (C) 1995-1998 Ti Kan
#
# Track frame offsets:
#       150
#       24101
#       50004
#       77366
#       106643
#       129189
#       156987
#       180144
#       206278
#       224878
#
# Disc length: 3258 seconds
#
# Revision: 0
# Processed by: cddbd v1.5.2PL0 Copyright (c) Steve Scherf et al.
# Submitted via: CD-Transfer v1.0
#
DISCID=720cb80a
DTITLE=Dogo Argentino - Dogo Argentino
DYEAR=11
DGENRE=
TTITLE0=Two Minutes To Midnight
TTITLE1=Senses
TTITLE2=Destiny
TTITLE3=Badly
TTITLE4=Daddy
TTITLE5=Mr. Groove
TTITLE6=Tell Me
TTITLE7=Step On 2011
TTITLE8=Dirty
TTITLE9=Yellow, Black Or White
EXTD=
EXTT0=
EXTT1=
EXTT2=
EXTT3=
EXTT4=
EXTT5=
EXTT6=
EXTT7=
EXTT8=
EXTT9=
PLAYORDER=
